<?xml version="1.0" encoding="utf-8"?>
<!-- Generator: Adobe Illustrator 16.0.0, SVG Export Plug-In . SVG Version: 6.00 Build 0)  -->
<!DOCTYPE svg PUBLIC "-//W3C//DTD SVG 1.1//EN" "http://www.w3.org/Graphics/SVG/1.1/DTD/svg11.dtd">
<svg version="1.1" xmlns="http://www.w3.org/2000/svg" xmlns:xlink="http://www.w3.org/1999/xlink" x="0px" y="0px" width="288px"
	 height="288px" viewBox="0 0 288 288" enable-background="new 0 0 288 288" xml:space="preserve">
<g id="_x3F__x21_">
	<path fill-rule="evenodd" clip-rule="evenodd" fill="#2A3F69" d="M129.605,110.882c-2.035-2.269-4.476-4.992-6.84-7.632
		c-11.697,0-22.847,0-36.603,0c-5.041,6.12-11.257,13.657-18.383,22.305c-8.625-9.666-15.623-17.505-23.277-26.078
		c8.764-8.751,18.272-18.246,27.636-27.598c21.608,0,42.563,0,63.53,0c9.08,9.319,18.121,18.595,27.962,28.696
		c0,11.675,0,24.705,0,38.165c-13.396,9.108-28.438,18.266-42.51,27.831c-0.482,4.132,0.58,8.611,0,13.651
		c-10.483,0-20.605,0-31.831,0c0-8.53,0-17.133,0-27.81c12.29-8.296,26.093-17.613,40.314-27.208
		C129.605,120.687,129.605,116.135,129.605,110.882z"/>
	<path fill-rule="evenodd" clip-rule="evenodd" fill="#2A3F69" d="M220.692,178.922c-12.488,0-22.585,0-33.834,0
		c0-36.465,0-72.17,0-108.796c10.799,0,22.186,0,33.834,0C220.692,106.103,220.692,142.093,220.692,178.922z"/>
	<path fill-rule="evenodd" clip-rule="evenodd" fill="#2A3F69" d="M96.045,192.573c6.596,0,11.677,0,17.326,0
		c3.224,2.75,6.701,5.721,10.371,8.85c0,6.115,0,12.06,0,18.476c-2.664,2.794-5.506,5.773-8.62,9.04c-5.89,0-11.854,0-20.245,0
		c-1.693-2.135-4.509-5.688-7.73-9.757c0-4.957,0-10.48,0-17.021C89.709,199.403,92.791,196.085,96.045,192.573z"/>
	<path fill-rule="evenodd" clip-rule="evenodd" fill="#2A3F69" d="M221.849,221.582c-2.526,2.374-5.201,4.885-7.916,7.434
		c-6.732,0-13.146,0-19.895,0c-2.571-2.457-5.196-4.967-7.919-7.576c0-6.667,0-13.081,0-20.334c2.39-2.532,5.189-5.491,7.926-8.39
		c5.966,0,11.48,0,18.018,0c2.834,2.532,6.233,5.571,9.786,8.751C221.849,207.531,221.849,213.499,221.849,221.582z"/>
</g>
<g id="Circle">
	
		<ellipse fill-rule="evenodd" clip-rule="evenodd" fill="none" stroke="#1F3661" stroke-width="10" stroke-miterlimit="10" cx="144" cy="144" rx="137.113" ry="133.793"/>
</g>
</svg>
